<?xml version="1.0" encoding="utf-8"?>
<svg width="223.543" height="87" viewBox="0 0 223.543 87" fill="none" stroke="none" version="1.1" xmlns:xlink="http://www.w3.org/1999/xlink" xmlns="http://www.w3.org/2000/svg">
  <g id="food_search_logo">
    <path id="Path" d="M2.3692 15.0842C3.66615 5.85584 6.78621 -1.19994 17.4963 0.17075C28.2063 1.54129 29.2236 9.44768 27.9266 18.6761C26.7199 27.2623 22.3688 34.4213 14.6 33.8502C14.444 34.7435 14.1297 35.8727 13.7403 37.2711C12.7215 40.9303 11.1896 46.4327 10.64 54.3735C9.47572 71.1922 7.59174 86.8739 2.49046 85.8822C-2.61083 84.8907 0.9776 70.3764 5.62165 54.3743C7.43174 48.1373 8.33065 43.1323 9.00425 39.382C9.52706 36.471 9.91415 34.3158 10.4862 32.9268C3.41158 30.3152 1.19209 23.4599 2.3692 15.0842L2.3692 15.0842Z" style="fill:#2C2C2C;fill-rule:evenodd;mix-blend-mode:normal;" transform="matrix(1 0 0 1 23.746 0)" />
    <path id="Path" d="M4.70451 0C4.70451 0 8.09943 1.93429 9.43203 9.04536C10.7646 16.1566 12.634 40.4095 12.3571 42.4787C12.0802 44.5481 12.2971 48.7493 13.3685 54.0395C14.4399 59.3298 19.3531 85.3576 13.9696 86.1019C9.98946 86.6867 7.91512 73.3815 7.76361 65.5496C7.61215 57.7174 8.05372 41.8062 5.63141 41.178C3.20908 40.5498 2.25028 38.4159 1.81158 37.1042C1.37288 35.7924 -0.117387 20.6044 0.00739196 16.4819C0.132171 12.3592 0.596829 5.41294 4.70451 0Z" style="fill:#2C2C2C;fill-rule:evenodd;mix-blend-mode:normal;" transform="matrix(1 0 0 1 0 0.879)" />
    <path id="Path" d="M11.8125 16.4062L17.7656 16.4062L17.7656 10.3594L11.8125 10.3594L11.8125 9.16406C11.8125 8.20312 12.0117 7.46094 12.4102 6.9375C12.8086 6.40625 13.4414 6.14062 14.3086 6.14062C15.043 6.14062 15.7109 6.20703 16.3125 6.33984C16.9219 6.46484 17.4688 6.58984 17.9531 6.71484L19.875 1.14844C18.9141 0.828125 17.8711 0.558594 16.7461 0.339844C15.6289 0.113281 14.3672 0 12.9609 0C10.9766 0 9.29688 0.296875 7.92188 0.890625C6.54688 1.47656 5.52344 2.43359 4.85156 3.76172C4.17969 5.08984 3.84375 6.89062 3.84375 9.16406L3.84375 10.4062L0 12.4805L0 16.4062L3.75 16.4062L3.75 36.7148L11.8125 36.7148L11.8125 16.4062L11.8125 16.4062ZM45.2379 29.3203C45.8317 27.625 46.1286 25.6758 46.1286 23.4727C46.1286 20.5586 45.5739 18.0938 44.4645 16.0781C43.3629 14.0625 41.8512 12.5273 39.9293 11.4727C38.0153 10.4102 35.7926 9.87891 33.2614 9.87891C30.5739 9.87891 28.2536 10.4102 26.3004 11.4727C24.3473 12.5273 22.8512 14.0625 21.8122 16.0781C20.7731 18.0938 20.2536 20.5586 20.2536 23.4727C20.2536 25.6758 20.5739 27.6328 21.2145 29.3438C21.8551 31.0547 22.7418 32.4961 23.8747 33.668C25.0153 34.832 26.3747 35.7109 27.9528 36.3047C29.5387 36.8984 31.2614 37.1953 33.1208 37.1953C35.1676 37.1953 36.984 36.8984 38.57 36.3047C40.1559 35.7109 41.5153 34.8242 42.6481 33.6445C43.7809 32.457 44.6442 31.0156 45.2379 29.3203L45.2379 29.3203ZM28.9489 27.5977C28.6286 26.4727 28.4684 25.0977 28.4684 23.4727C28.4684 21.0352 28.8434 19.2031 29.5934 17.9766C30.3434 16.7422 31.5348 16.125 33.1676 16.125C34.3239 16.125 35.2458 16.3984 35.9333 16.9453C36.6208 17.4844 37.1247 18.3008 37.445 19.3945C37.7653 20.4805 37.9254 21.8398 37.9254 23.4727C37.9254 25.0977 37.7653 26.4727 37.445 27.5977C37.1247 28.7148 36.6286 29.5547 35.9567 30.1172C35.2848 30.6719 34.3708 30.9492 33.2145 30.9492C32.0973 30.9492 31.1872 30.6719 30.484 30.1172C29.7809 29.5547 29.2692 28.7148 28.9489 27.5977L28.9489 27.5977ZM75.3339 29.3203C75.9277 27.625 76.2246 25.6758 76.2246 23.4727C76.2246 20.5586 75.6699 18.0938 74.5605 16.0781C73.4589 14.0625 71.9472 12.5273 70.0253 11.4727C68.1113 10.4102 65.8886 9.87891 63.3574 9.87891C60.6699 9.87891 58.3496 10.4102 56.3964 11.4727C54.4433 12.5273 52.9472 14.0625 51.9082 16.0781C50.8691 18.0938 50.3496 20.5586 50.3496 23.4727C50.3496 25.6758 50.6699 27.6328 51.3105 29.3438C51.9511 31.0547 52.8378 32.4961 53.9707 33.668C55.1113 34.832 56.4707 35.7109 58.0488 36.3047C59.6347 36.8984 61.3574 37.1953 63.2168 37.1953C65.2636 37.1953 67.08 36.8984 68.666 36.3047C70.2519 35.7109 71.6113 34.8242 72.7441 33.6445C73.8769 32.457 74.7402 31.0156 75.3339 29.3203L75.3339 29.3203ZM59.0449 27.5977C58.7246 26.4727 58.5644 25.0977 58.5644 23.4727C58.5644 21.0352 58.9394 19.2031 59.6894 17.9766C60.4394 16.7422 61.6308 16.125 63.2636 16.125C64.4199 16.125 65.3418 16.3984 66.0293 16.9453C66.7168 17.4844 67.2207 18.3008 67.541 19.3945C67.8613 20.4805 68.0214 21.8398 68.0214 23.4727C68.0214 25.0977 67.8613 26.4727 67.541 27.5977C67.2207 28.7148 66.7246 29.5547 66.0527 30.1172C65.3808 30.6719 64.4668 30.9492 63.3105 30.9492C62.1933 30.9492 61.2832 30.6719 60.58 30.1172C59.8769 29.5547 59.3652 28.7148 59.0449 27.5977L59.0449 27.5977ZM83.1526 33.7383C84.9651 36.043 87.2815 37.1953 90.1018 37.1953C91.344 37.1953 92.4221 37.0195 93.3362 36.668C94.2502 36.3164 95.0432 35.8438 95.7151 35.25C96.387 34.6562 96.9299 34.0078 97.344 33.3047L97.6838 33.3047L99.3127 36.7148L105.453 36.7148L105.453 0.234375L97.344 0.234375L97.344 8.0625C97.344 9.11719 97.3987 10.1797 97.5081 11.25C97.6252 12.3203 97.7307 13.1445 97.8245 13.7227L97.637 13.7227C97.1526 12.9883 96.5823 12.332 95.926 11.7539C95.2698 11.1758 94.4768 10.7188 93.5471 10.3828C92.6252 10.0469 91.5549 9.87891 90.3362 9.87891C87.3909 9.87891 85.0042 11.0312 83.176 13.3359C81.3557 15.6406 80.4456 19.0508 80.4456 23.5664C80.4456 28.043 81.3479 31.4336 83.1526 33.7383L83.1526 33.7383ZM96.8635 29.1797C96.1604 30.2344 94.9299 30.7617 93.1721 30.7617C91.7581 30.7617 90.6448 30.1875 89.8323 29.0391C89.0198 27.8828 88.6135 26.1055 88.6135 23.707C88.6135 21.2773 89.0198 19.4531 89.8323 18.2344C90.6448 17.0156 91.7229 16.4062 93.0667 16.4062C94.9573 16.4062 96.2463 17.0312 96.9338 18.2812C97.6213 19.5312 97.9651 21.3242 97.9651 23.6602L97.9651 24.375C97.9338 26.5234 97.5667 28.125 96.8635 29.1797L96.8635 29.1797Z" style="fill:#D08230;mix-blend-mode:normal;" transform="translate(68.115 9)" />
    <path id="Path" d="M19.125 33C19.9141 31.7344 20.3086 30.2383 20.3086 28.5117C20.3086 26.9414 20.0352 25.6602 19.4883 24.668C18.9492 23.6758 18.1484 22.8438 17.0859 22.1719C16.0312 21.5 14.7539 20.8633 13.2539 20.2617C11.7461 19.6211 10.6016 19.125 9.82031 18.7734C9.03906 18.4219 8.51172 18.0938 8.23828 17.7891C7.96484 17.4844 7.82812 17.1562 7.82812 16.8047C7.82812 16.3203 8.06641 15.9609 8.54297 15.7266C9.02734 15.4844 9.71484 15.3633 10.6055 15.3633C11.5977 15.3633 12.7188 15.5391 13.9688 15.8906C15.2188 16.2422 16.4844 16.707 17.7656 17.2852L20.0625 11.8125C18.4688 11.0703 16.918 10.5234 15.4102 10.1719C13.9102 9.82031 12.3086 9.64453 10.6055 9.64453C7.41016 9.64453 4.84375 10.2773 2.90625 11.543C0.96875 12.8086 0 14.6875 0 17.1797C0 18.625 0.246094 19.8438 0.738281 20.8359C1.23828 21.8281 1.99219 22.6758 3 23.3789C4.00781 24.082 5.29688 24.7695 6.86719 25.4414C8.46875 26.082 9.67578 26.6094 10.4883 27.0234C11.3086 27.4375 11.8516 27.8047 12.1172 28.125C12.3906 28.4453 12.5273 28.8164 12.5273 29.2383C12.5273 29.8086 12.2539 30.2539 11.707 30.5742C11.168 30.8945 10.2891 31.0547 9.07031 31.0547C7.95312 31.0547 6.55469 30.8633 4.875 30.4805C3.19531 30.0977 1.58594 29.5703 0.046875 28.8984L0.046875 35.4258C1.46094 36.0039 2.86328 36.4023 4.25391 36.6211C5.64453 36.8477 7.26562 36.9609 9.11719 36.9609C11.6797 36.9609 13.793 36.6172 15.457 35.9297C17.1211 35.2422 18.3438 34.2656 19.125 33L19.125 33ZM43.4599 11.0156C41.6552 10.1016 39.5068 9.64453 37.0146 9.64453C34.4833 9.64453 32.2568 10.1484 30.3349 11.1562C28.4208 12.1641 26.9325 13.6875 25.87 15.7266C24.8153 17.7578 24.288 20.3398 24.288 23.4727C24.288 26.543 24.87 29.0781 26.0341 31.0781C27.206 33.0781 28.8232 34.5586 30.8857 35.5195C32.956 36.4805 35.3193 36.9609 37.9755 36.9609C40.1161 36.9609 41.9208 36.8086 43.3896 36.5039C44.8661 36.1992 46.245 35.7109 47.5263 35.0391L47.5263 29.0391C46.0497 29.7422 44.6239 30.2539 43.2489 30.5742C41.8739 30.8945 40.3388 31.0547 38.6435 31.0547C36.6903 31.0547 35.1864 30.543 34.1318 29.5195C33.0771 28.4961 32.5185 27.1211 32.456 25.3945L49.1083 25.3945L49.1083 21.6445C49.1083 19.0195 48.62 16.8203 47.6435 15.0469C46.6669 13.2734 45.2724 11.9297 43.4599 11.0156L43.4599 11.0156ZM34.0497 16.4414C34.87 15.6602 35.9052 15.2695 37.1552 15.2695C38.1474 15.2695 38.9794 15.4844 39.6513 15.9141C40.3232 16.3438 40.8271 16.9297 41.163 17.6719C41.4989 18.4062 41.6669 19.2344 41.6669 20.1562L32.5966 20.1562C32.7528 18.4609 33.2372 17.2227 34.0497 16.4414L34.0497 16.4414ZM74.3492 11.9766C72.4664 10.3906 69.814 9.59766 66.3922 9.59766C64.275 9.59766 62.3023 9.80859 60.4742 10.2305C58.6539 10.6445 57.025 11.2344 55.5875 12L58.0367 17.3789C59.3179 16.832 60.5797 16.375 61.8218 16.0078C63.0718 15.6406 64.275 15.457 65.4312 15.457C66.5797 15.457 67.482 15.7461 68.1382 16.3242C68.7945 16.8945 69.1226 17.8203 69.1226 19.1016L69.1226 19.875L64.6109 20.0156C60.8062 20.1797 57.9195 20.9336 55.9508 22.2773C53.982 23.6211 52.9976 25.6992 52.9976 28.5117C52.9976 30.4336 53.3492 32.0195 54.0523 33.2695C54.7554 34.5117 55.7203 35.4375 56.9468 36.0469C58.1812 36.6562 59.5679 36.9609 61.107 36.9609C62.5757 36.9609 63.814 36.8242 64.8218 36.5508C65.8297 36.2773 66.7242 35.8398 67.5054 35.2383C68.2945 34.6289 69.0562 33.8594 69.7906 32.9297L69.9898 32.9297L71.5718 36.4805L77.1851 36.4805L77.1851 19.0078C77.1851 15.9062 76.2398 13.5625 74.3492 11.9766L74.3492 11.9766ZM62.4429 25.6523C63.2476 24.9961 64.6578 24.6367 66.6734 24.5742L69.1226 24.4805L69.1226 26.5898C69.1226 27.9961 68.6578 29.1094 67.7281 29.9297C66.7984 30.7422 65.6617 31.1484 64.3179 31.1484C63.4273 31.1484 62.6929 30.9258 62.1148 30.4805C61.5367 30.0352 61.2476 29.3164 61.2476 28.3242C61.2476 27.1992 61.6461 26.3086 62.4429 25.6523L62.4429 25.6523ZM100.703 9.72656C100.195 9.67188 99.7341 9.64453 99.3201 9.64453C98.2263 9.64453 97.1912 9.86328 96.2146 10.3008C95.238 10.7305 94.3669 11.3047 93.6013 12.0234C92.8357 12.7422 92.1951 13.5508 91.6794 14.4492L91.3513 14.4492L90.0974 10.125L84.0037 10.125L84.0037 36.4805L92.113 36.4805L92.113 23.2852C92.113 22.0352 92.3044 21.0195 92.6873 20.2383C93.0701 19.4492 93.5818 18.8398 94.2224 18.4102C94.863 17.9805 95.5662 17.6797 96.3318 17.5078C97.1052 17.3281 97.8748 17.2383 98.6404 17.2383C99.1873 17.2383 99.6833 17.2617 100.129 17.3086C100.582 17.3555 100.949 17.4102 101.23 17.4727L101.91 9.89062C101.621 9.82812 101.219 9.77344 100.703 9.72656L100.703 9.72656ZM109.707 35.543C111.613 36.4883 113.879 36.9609 116.504 36.9609C118.324 36.9609 119.875 36.7773 121.156 36.4102C122.437 36.043 123.621 35.5078 124.707 34.8047L124.707 28.1719C123.59 28.8828 122.414 29.4453 121.179 29.8594C119.945 30.2734 118.625 30.4805 117.219 30.4805C116.133 30.4805 115.203 30.2266 114.429 29.7188C113.664 29.2031 113.074 28.4258 112.66 27.3867C112.246 26.3477 112.039 25.0117 112.039 23.3789C112.039 21.7461 112.238 20.3867 112.637 19.3008C113.035 18.207 113.617 17.3984 114.383 16.875C115.156 16.3438 116.086 16.0781 117.172 16.0781C118.164 16.0781 119.14 16.2227 120.101 16.5117C121.062 16.8008 122.101 17.168 123.219 17.6133L125.574 11.5195C124.48 10.9727 123.238 10.5234 121.847 10.1719C120.457 9.82031 118.898 9.64453 117.172 9.64453C114.578 9.64453 112.273 10.125 110.258 11.0859C108.242 12.0469 106.664 13.543 105.523 15.5742C104.39 17.6055 103.824 20.2227 103.824 23.4258C103.824 26.5586 104.328 29.125 105.336 31.125C106.344 33.125 107.801 34.5977 109.707 35.543L109.707 35.543ZM138.388 10.6875C138.482 9.42188 138.529 7.98828 138.529 6.38672L138.529 0L130.42 0L130.42 36.4805L138.529 36.4805L138.529 24.4805C138.529 22.6602 138.681 21.125 138.986 19.875C139.291 18.625 139.81 17.6719 140.545 17.0156C141.279 16.3594 142.287 16.0312 143.568 16.0312C144.881 16.0312 145.834 16.4883 146.427 17.4023C147.021 18.3164 147.318 19.6992 147.318 21.5508L147.318 36.4805L155.427 36.4805L155.427 19.3008C155.427 17.0273 155.017 15.1875 154.197 13.7812C153.385 12.3672 152.275 11.3242 150.869 10.6523C149.463 9.98047 147.845 9.64453 146.017 9.64453C144.963 9.64453 143.97 9.77344 143.041 10.0312C142.111 10.2891 141.279 10.6914 140.545 11.2383C139.81 11.7773 139.154 12.5117 138.576 13.4414L138.142 13.4414C138.213 12.8633 138.295 11.9453 138.388 10.6875L138.388 10.6875Z" style="fill:#2C2C2C;mix-blend-mode:normal;" transform="translate(68.115 50)" />
  </g>
</svg>